       <svg width="39" height="39" viewBox="0 0 39 39" fill="none" xmlns="http://www.w3.org/2000/svg">
                    <path d="M6.5 26.0005V6.50049H3.25V3.25049H8.125C8.55598
                             3.25049 8.9693 3.42169 9.27405 3.72644C9.57879
                              4.03119 9.75 4.44451 9.75 4.87549V24.3755H29.9617L33.2117
                               11.3755H13V8.12549H35.295C35.542 8.12549 35.7858 8.18181 
                               36.0077 8.29016C36.2297 8.39851 36.4241 8.55603 36.576
                                8.75077C36.728 8.9455 36.8336 9.17231 36.8847 9.41397C36.9359
                                 9.65562 36.9313 9.90576 36.8713 10.1454L32.8087 26.3954C32.7207
                                  26.7468 32.5178 27.0587 32.2322 27.2815C31.9466 27.5044 31.5948
                                   27.6255 31.2325 27.6255H8.125C7.69402 27.6255 7.2807 27.4543 6.97595
                                    27.1495C6.67121 26.8448 6.5 26.4315 6.5 26.0005ZM9.75 37.3755C8.88805
                                     37.3755 8.0614 37.0331 7.4519 36.4236C6.84241 35.8141 6.5 34.9874 6.5
                                      34.1255C6.5 33.2635 6.84241 32.4369 7.4519 31.8274C8.0614 31.2179
                                       8.88805 30.8755 9.75 30.8755C10.612 30.8755 11.4386 31.2179 12.0481 
                                       31.8274C12.6576 32.4369 13 33.2635 13 34.1255C13 34.9874 12.6576
                                        35.8141 12.0481 36.4236C11.4386 37.0331 10.612 37.3755 9.75 
                                        37.3755ZM29.25 37.3755C28.388 37.3755 27.5614 37.0331 26.9519 
                                        36.4236C26.3424 35.8141 26 34.9874 26 34.1255C26 33.2635 26.3424
                                         32.4369 26.9519 31.8274C27.5614 31.2179 28.388 30.8755 29.25 
                                         30.8755C30.112 30.8755 30.9386 31.2179 31.5481 31.8274C32.1576 
                                         32.4369 32.5 33.2635 32.5 34.1255C32.5 34.9874 32.1576 35.8141 31.5481
                                          36.4236C30.9386 37.0331 30.112 37.3755 29.25 37.3755Z" fill="#e15817fa"></path>
                </svg>